<?xml version="1.0" encoding="utf-8"?>
<!-- Generator: Adobe Illustrator 22.1.0, SVG Export Plug-In . SVG Version: 6.00 Build 0)  -->
<svg version="1.1" id="Layer_1" xmlns="http://www.w3.org/2000/svg" xmlns:xlink="http://www.w3.org/1999/xlink" x="0px" y="0px"
	 viewBox="0 0 330 93" style="enable-background:new 0 0 330 93;" xml:space="preserve">
<style type="text/css">
	.st0{fill:#A7A9AB;}
	.st1{fill:#C8AA5F;}
	.st2{fill:#77787B;}
</style>
<path class="st0" d="M105.3,85.3c-0.3,0-0.6-0.1-0.7-0.2c-0.2-0.1-0.2-0.3-0.2-0.6c0-0.1,0-0.2,0-0.2c0-0.1,0-0.2,0-0.3l0.8-3.6h-1
	l0.1-0.5h1l0.4-1.6h1l-0.4,1.6h1.5l-0.1,0.5h-1.5l-0.7,3c0,0.1-0.1,0.3-0.1,0.4c0,0.1,0,0.2,0,0.3c0,0.2,0,0.3,0.1,0.4
	c0.1,0.1,0.3,0.1,0.5,0.1c0.1,0,0.2,0,0.4,0c0.2,0,0.3-0.1,0.4-0.1l-0.1,0.4c-0.3,0.1-0.5,0.2-0.7,0.2
	C105.9,85.3,105.6,85.3,105.3,85.3"/>
<path class="st0" d="M113.4,84.6l-0.1,0.3c-0.3,0.1-0.6,0.2-0.8,0.3c-0.2,0.1-0.4,0.1-0.5,0.1c-0.3,0-0.5-0.1-0.6-0.2
	c-0.1-0.1-0.2-0.3-0.2-0.6c0-0.1,0-0.2,0-0.3c0-0.1,0-0.2,0.1-0.3l0.5-2c0-0.2,0.1-0.3,0.1-0.4c0-0.1,0-0.2,0-0.3
	c0-0.2-0.1-0.4-0.2-0.6c-0.1-0.1-0.3-0.2-0.5-0.2c-0.2,0-0.5,0.1-0.7,0.2c-0.3,0.1-0.5,0.4-0.8,0.6l-0.9,3.9h-1l1.6-6.9
	c0-0.1,0-0.2,0-0.2c0-0.1,0-0.1,0-0.2c0-0.1,0-0.2-0.1-0.3c0-0.1-0.1-0.1-0.2-0.2c-0.1,0-0.2-0.1-0.3-0.1c-0.1,0-0.2,0-0.4,0
	l0.1-0.3l2-0.1l0.1,0.1l-0.9,3.7h0c0.4-0.3,0.7-0.5,1-0.7c0.3-0.2,0.6-0.2,1-0.2c0.3,0,0.6,0.1,0.8,0.3c0.2,0.2,0.3,0.5,0.3,0.8
	c0,0.1,0,0.2,0,0.3c0,0.2,0,0.3-0.1,0.5l-0.5,1.7c0,0.1-0.1,0.2-0.1,0.4c0,0.1,0,0.3,0,0.3c0,0.2,0,0.3,0.1,0.4
	c0.1,0.1,0.2,0.1,0.4,0.1c0.1,0,0.2,0,0.3,0C113.3,84.6,113.4,84.6,113.4,84.6"/>
<path class="st0" d="M117.7,80.8c0-0.1,0-0.2-0.1-0.3c0-0.1-0.1-0.1-0.2-0.2c-0.1,0-0.1-0.1-0.2-0.1c-0.1,0-0.1,0-0.2,0
	c-0.4,0-0.8,0.2-1.2,0.7c-0.4,0.5-0.6,1.1-0.7,1.8c0.3,0,0.5-0.1,0.8-0.2c0.3-0.1,0.6-0.2,0.8-0.3c0.3-0.2,0.5-0.4,0.7-0.6
	C117.7,81.4,117.7,81.1,117.7,80.8 M118.7,80.9c0,0.4-0.1,0.7-0.4,1c-0.2,0.3-0.6,0.5-1,0.7c-0.3,0.1-0.7,0.2-1,0.3
	s-0.7,0.1-1.1,0.2c0,0.6,0.1,1,0.3,1.3c0.2,0.3,0.5,0.4,0.9,0.4c0.4,0,0.7-0.1,0.9-0.3c0.3-0.2,0.5-0.4,0.8-0.8l0.3,0.2
	c-0.3,0.4-0.6,0.8-1.1,1c-0.4,0.3-0.9,0.4-1.3,0.4c-0.6,0-1.1-0.2-1.5-0.5c-0.3-0.4-0.5-0.9-0.5-1.5c0-0.5,0.1-0.9,0.2-1.3
	c0.1-0.4,0.4-0.8,0.6-1.1c0.3-0.3,0.6-0.6,1-0.8c0.4-0.2,0.8-0.3,1.3-0.3c0.5,0,0.9,0.1,1.1,0.3C118.6,80.3,118.7,80.6,118.7,80.9"
	/>
<path class="st0" d="M123.5,85.4c-0.5,0-1-0.1-1.3-0.3c-0.4-0.2-0.5-0.4-0.5-0.7c0-0.1,0.1-0.3,0.2-0.4c0.1-0.1,0.2-0.2,0.4-0.2
	c0.1,0,0.3,0,0.3,0.1c0.1,0.1,0.2,0.1,0.2,0.2c0.1,0.1,0.1,0.2,0.1,0.3c0,0.1,0.1,0.2,0.1,0.3c0.1,0.1,0.1,0.1,0.2,0.2
	c0.1,0.1,0.2,0.1,0.4,0.1c0.4,0,0.7-0.1,0.9-0.3c0.2-0.2,0.3-0.5,0.3-0.8c0-0.2-0.1-0.4-0.3-0.6c-0.2-0.1-0.5-0.3-0.8-0.4
	c-0.1,0-0.3-0.1-0.5-0.2c-0.2-0.1-0.3-0.2-0.4-0.3c-0.1-0.1-0.2-0.3-0.3-0.4c-0.1-0.2-0.1-0.3-0.1-0.6c0-0.5,0.2-0.9,0.6-1.2
	c0.4-0.3,0.9-0.5,1.5-0.5c0.1,0,0.3,0,0.5,0c0.2,0,0.3,0.1,0.5,0.1c0.2,0.1,0.3,0.1,0.4,0.3c0.1,0.1,0.2,0.3,0.2,0.4
	c0,0.1,0,0.3-0.2,0.4c-0.1,0.1-0.2,0.2-0.4,0.2c-0.1,0-0.2,0-0.3-0.1c-0.1-0.1-0.2-0.1-0.2-0.2c-0.1-0.1-0.1-0.2-0.1-0.3
	c0-0.1-0.1-0.2-0.1-0.3c-0.1,0-0.1,0-0.2-0.1c-0.1,0-0.1,0-0.2,0c-0.4,0-0.6,0.1-0.8,0.3c-0.2,0.2-0.3,0.4-0.3,0.7
	c0,0.3,0.1,0.4,0.2,0.6c0.2,0.1,0.4,0.3,0.8,0.4c0.5,0.2,0.8,0.4,1.1,0.6c0.2,0.2,0.3,0.5,0.3,0.8c0,0.5-0.2,1-0.6,1.3
	C124.7,85.2,124.2,85.4,123.5,85.4"/>
<path class="st0" d="M129.7,77.8c0,0.2-0.1,0.4-0.2,0.5c-0.1,0.2-0.3,0.2-0.5,0.2c-0.2,0-0.3-0.1-0.5-0.2c-0.1-0.1-0.2-0.3-0.2-0.5
	c0-0.2,0.1-0.4,0.2-0.5c0.1-0.1,0.3-0.2,0.5-0.2c0.2,0,0.4,0.1,0.5,0.2C129.6,77.4,129.7,77.6,129.7,77.8 M129.3,84.6l-0.1,0.3
	c-0.3,0.1-0.6,0.2-0.8,0.3c-0.2,0.1-0.4,0.1-0.5,0.1c-0.3,0-0.5-0.1-0.6-0.2c-0.1-0.2-0.2-0.3-0.2-0.6c0-0.1,0-0.2,0-0.3
	c0-0.1,0-0.2,0.1-0.3l0.6-2.3c0-0.1,0.1-0.3,0.1-0.4c0-0.1,0-0.3,0-0.4c0-0.2,0-0.3-0.1-0.4c-0.1-0.1-0.2-0.1-0.4-0.1
	c-0.1,0-0.2,0-0.3,0c-0.1,0-0.2,0-0.3,0.1l0.1-0.3c0.3-0.1,0.5-0.2,0.8-0.3c0.2-0.1,0.4-0.1,0.5-0.1c0.3,0,0.5,0.1,0.6,0.2
	c0.1,0.1,0.2,0.3,0.2,0.6c0,0.1,0,0.2,0,0.3c0,0.1,0,0.2-0.1,0.3l-0.6,2.3c0,0.1-0.1,0.3-0.1,0.4c0,0.1,0,0.2,0,0.3
	c0,0.2,0,0.3,0.1,0.4c0.1,0.1,0.2,0.1,0.4,0.1c0.1,0,0.2,0,0.3,0C129.1,84.7,129.2,84.7,129.3,84.6"/>
<path class="st0" d="M134.2,81.1c0-0.1,0-0.2,0-0.3c0-0.1-0.1-0.2-0.2-0.3c-0.1-0.1-0.2-0.2-0.3-0.2c-0.1,0-0.3-0.1-0.5-0.1
	c-0.3,0-0.5,0.1-0.8,0.3c-0.2,0.2-0.5,0.4-0.7,0.7c-0.2,0.3-0.3,0.6-0.4,1c-0.1,0.4-0.2,0.8-0.2,1.2c0,0.2,0,0.4,0,0.6
	c0,0.2,0.1,0.3,0.2,0.5c0.1,0.1,0.2,0.2,0.3,0.3c0.1,0.1,0.3,0.1,0.5,0.1c0.3,0,0.5-0.1,0.7-0.2c0.2-0.1,0.5-0.3,0.7-0.6L134.2,81.1
	z M133.4,84.5L133.4,84.5c-0.1,0-0.2,0.1-0.3,0.2c-0.1,0.1-0.3,0.2-0.4,0.3c-0.2,0.1-0.3,0.2-0.5,0.2c-0.2,0.1-0.4,0.1-0.6,0.1
	c-0.5,0-0.9-0.2-1.2-0.5c-0.3-0.4-0.4-0.9-0.4-1.5c0-0.4,0.1-0.9,0.2-1.3c0.2-0.4,0.4-0.8,0.7-1.1c0.3-0.3,0.6-0.6,1-0.8
	c0.4-0.2,0.8-0.3,1.2-0.3c0.3,0,0.5,0,0.7,0.1c0.2,0.1,0.4,0.1,0.6,0.2l1-0.3l0.1,0.1l-0.9,4.2c-0.1,0.6-0.3,1.2-0.5,1.6
	c-0.2,0.4-0.5,0.8-0.7,1.1c-0.3,0.3-0.6,0.5-1,0.6c-0.3,0.1-0.7,0.2-1.2,0.2c-0.3,0-0.5,0-0.7-0.1c-0.2,0-0.3-0.1-0.4-0.2
	c-0.1-0.1-0.2-0.2-0.2-0.3c0-0.1-0.1-0.2-0.1-0.3c0-0.2,0-0.3,0.1-0.4c0.1-0.1,0.2-0.2,0.4-0.2c0.1,0,0.2,0,0.3,0.1
	c0.1,0.1,0.2,0.2,0.2,0.3c0.1,0.1,0.1,0.2,0.2,0.3c0.1,0.1,0.1,0.2,0.1,0.3h0.2c0.2,0,0.4,0,0.6-0.1c0.2-0.1,0.4-0.2,0.6-0.4
	c0.2-0.2,0.4-0.5,0.5-0.8C133.2,85.5,133.3,85,133.4,84.5"/>
<path class="st0" d="M142.1,84.6l-0.1,0.3c-0.3,0.1-0.6,0.2-0.8,0.3c-0.2,0.1-0.4,0.1-0.5,0.1c-0.3,0-0.5-0.1-0.6-0.2
	c-0.1-0.1-0.2-0.3-0.2-0.6c0-0.1,0-0.2,0-0.3c0-0.1,0-0.2,0.1-0.3l0.5-2c0-0.2,0.1-0.3,0.1-0.4c0-0.1,0-0.2,0-0.3
	c0-0.2-0.1-0.4-0.2-0.6c-0.1-0.1-0.3-0.2-0.5-0.2c-0.2,0-0.5,0.1-0.7,0.2c-0.3,0.1-0.5,0.4-0.8,0.6l-0.9,3.9h-1l0.8-3.5
	c0-0.1,0-0.2,0.1-0.4c0-0.2,0.1-0.3,0.1-0.4c0-0.2,0-0.3-0.1-0.4c-0.1-0.1-0.2-0.1-0.4-0.1c-0.1,0-0.2,0-0.3,0c-0.1,0-0.2,0-0.3,0.1
	l0.1-0.3c0.3-0.1,0.5-0.2,0.7-0.3c0.2-0.1,0.4-0.1,0.6-0.1c0.3,0,0.5,0.1,0.6,0.2c0.1,0.2,0.2,0.4,0.2,0.6h0c0.4-0.3,0.7-0.5,1-0.7
	c0.3-0.2,0.6-0.2,1-0.2c0.3,0,0.6,0.1,0.8,0.3c0.2,0.2,0.3,0.5,0.3,0.8c0,0.1,0,0.2,0,0.3c0,0.2,0,0.3-0.1,0.5l-0.5,1.7
	c0,0.1-0.1,0.2-0.1,0.4c0,0.1,0,0.3,0,0.3c0,0.2,0,0.3,0.1,0.4c0.1,0.1,0.2,0.1,0.4,0.1c0.1,0,0.2,0,0.3,0
	C142,84.6,142.1,84.6,142.1,84.6"/>
<path class="st0" d="M149.6,81.7c0-0.5-0.1-0.9-0.3-1.1c-0.2-0.3-0.4-0.4-0.8-0.4c-0.3,0-0.6,0.1-0.8,0.3c-0.3,0.2-0.5,0.5-0.7,0.9
	c-0.1,0.3-0.3,0.7-0.3,1c-0.1,0.4-0.1,0.7-0.1,1.1c0,0.5,0.1,0.9,0.3,1.2c0.2,0.3,0.4,0.4,0.8,0.4c0.3,0,0.6-0.1,0.8-0.3
	c0.2-0.2,0.4-0.5,0.6-0.8c0.2-0.3,0.3-0.6,0.4-1C149.5,82.5,149.6,82.1,149.6,81.7 M150.7,81.9c0,0.4-0.1,0.8-0.2,1.3
	c-0.1,0.4-0.4,0.8-0.6,1.1c-0.3,0.3-0.6,0.6-1,0.8c-0.4,0.2-0.8,0.3-1.4,0.3c-0.6,0-1.1-0.2-1.5-0.6c-0.4-0.4-0.6-0.9-0.6-1.6
	c0-0.5,0.1-0.9,0.2-1.3c0.2-0.4,0.4-0.8,0.6-1.1c0.3-0.3,0.6-0.6,1-0.8c0.4-0.2,0.8-0.3,1.3-0.3c0.6,0,1.1,0.2,1.5,0.6
	C150.5,80.8,150.7,81.3,150.7,81.9"/>
<path class="st0" d="M153.7,80.5l-0.9,4.4c-0.2,0.8-0.5,1.4-1.1,2c-0.5,0.5-1.1,0.8-1.7,0.8c-0.3,0-0.5-0.1-0.7-0.2
	c-0.2-0.1-0.2-0.3-0.2-0.5c0-0.2,0-0.3,0.1-0.4s0.2-0.2,0.4-0.2c0.1,0,0.2,0,0.3,0.1c0.1,0,0.2,0.1,0.2,0.2c0.1,0.1,0.1,0.1,0.2,0.2
	c0.1,0.1,0.1,0.2,0.2,0.3c0.3,0,0.5-0.2,0.7-0.6c0.2-0.4,0.4-0.9,0.5-1.5l1-4.7h-1l0.1-0.5h1l0.1-0.4c0.1-0.4,0.2-0.8,0.4-1.1
	c0.2-0.3,0.4-0.6,0.6-0.9c0.2-0.2,0.5-0.4,0.8-0.5c0.3-0.1,0.6-0.2,0.9-0.2c0.3,0,0.5,0.1,0.7,0.2c0.2,0.1,0.2,0.3,0.2,0.5
	c0,0.2,0,0.3-0.1,0.4c-0.1,0.1-0.2,0.2-0.4,0.2c-0.1,0-0.2,0-0.3-0.1c-0.1,0-0.2-0.1-0.2-0.2c-0.1-0.1-0.1-0.2-0.2-0.3
	c0-0.1-0.1-0.2-0.2-0.3c-0.2,0-0.5,0.2-0.7,0.5c-0.2,0.3-0.4,0.8-0.5,1.6l-0.1,0.6h1.4l-0.1,0.5H153.7z"/>
<path class="st0" d="M161.8,81.1c0-0.1,0-0.2,0-0.3c0-0.1-0.1-0.2-0.2-0.3c-0.1-0.1-0.2-0.2-0.3-0.2c-0.1-0.1-0.3-0.1-0.5-0.1
	c-0.3,0-0.5,0.1-0.8,0.3c-0.2,0.2-0.5,0.4-0.7,0.7c-0.2,0.3-0.3,0.6-0.5,1c-0.1,0.4-0.2,0.8-0.2,1.2c0,0.2,0,0.4,0,0.6
	c0,0.2,0.1,0.3,0.1,0.5c0.1,0.1,0.2,0.2,0.3,0.3c0.1,0.1,0.3,0.1,0.5,0.1c0.2,0,0.4-0.1,0.6-0.2c0.2-0.1,0.5-0.3,0.7-0.6L161.8,81.1
	z M161,84.5L161,84.5c-0.1,0.1-0.2,0.1-0.3,0.2c-0.1,0.1-0.2,0.2-0.4,0.3c-0.1,0.1-0.3,0.2-0.5,0.2c-0.2,0.1-0.3,0.1-0.5,0.1
	c-0.5,0-0.9-0.2-1.2-0.6c-0.3-0.4-0.4-0.9-0.4-1.5c0-0.4,0.1-0.9,0.2-1.3c0.2-0.4,0.4-0.8,0.7-1.1c0.3-0.3,0.6-0.6,1-0.8
	c0.4-0.2,0.8-0.3,1.2-0.3c0.3,0,0.5,0,0.7,0.1c0.2,0.1,0.4,0.1,0.5,0.2l1-0.3l0.1,0.1l-0.8,3.5c0,0.1-0.1,0.2-0.1,0.4
	c0,0.2,0,0.3,0,0.4c0,0.2,0,0.3,0.1,0.4c0.1,0.1,0.2,0.1,0.4,0.1c0.1,0,0.2,0,0.3,0c0.1,0,0.2,0,0.3-0.1l-0.1,0.3
	c-0.3,0.1-0.6,0.2-0.7,0.3c-0.2,0.1-0.3,0.1-0.6,0.1c-0.3,0-0.5-0.1-0.6-0.2C161.1,84.9,161.1,84.7,161,84.5"/>
<path class="st0" d="M170.8,81.1c0-0.1,0-0.2,0-0.3c0-0.1-0.1-0.2-0.2-0.3c-0.1-0.1-0.2-0.2-0.3-0.2c-0.1,0-0.3-0.1-0.5-0.1
	c-0.3,0-0.5,0.1-0.8,0.3c-0.2,0.2-0.5,0.4-0.7,0.7c-0.2,0.3-0.3,0.6-0.4,1c-0.1,0.4-0.2,0.8-0.2,1.2c0,0.2,0,0.4,0,0.6
	c0,0.2,0.1,0.3,0.2,0.5s0.2,0.2,0.3,0.3c0.1,0.1,0.3,0.1,0.5,0.1c0.3,0,0.5-0.1,0.7-0.2c0.2-0.1,0.5-0.3,0.7-0.6L170.8,81.1z
	 M170.1,84.5L170.1,84.5c-0.1,0-0.2,0.1-0.3,0.2c-0.1,0.1-0.3,0.2-0.4,0.3c-0.2,0.1-0.3,0.2-0.5,0.2c-0.2,0.1-0.4,0.1-0.6,0.1
	c-0.5,0-0.9-0.2-1.2-0.5c-0.3-0.4-0.4-0.9-0.4-1.5c0-0.4,0.1-0.9,0.2-1.3c0.2-0.4,0.4-0.8,0.7-1.1c0.3-0.3,0.6-0.6,1-0.8
	c0.4-0.2,0.8-0.3,1.2-0.3c0.3,0,0.5,0,0.7,0.1c0.2,0.1,0.4,0.1,0.6,0.2l1-0.3l0.1,0.1l-0.9,4.2c-0.1,0.6-0.3,1.2-0.5,1.6
	c-0.2,0.4-0.5,0.8-0.7,1.1c-0.3,0.3-0.6,0.5-1,0.6c-0.3,0.1-0.7,0.2-1.2,0.2c-0.3,0-0.5,0-0.7-0.1c-0.2,0-0.3-0.1-0.4-0.2
	c-0.1-0.1-0.2-0.2-0.2-0.3c0-0.1-0.1-0.2-0.1-0.3c0-0.2,0-0.3,0.1-0.4c0.1-0.1,0.2-0.2,0.4-0.2c0.1,0,0.2,0,0.3,0.1
	c0.1,0.1,0.2,0.2,0.2,0.3c0.1,0.1,0.1,0.2,0.2,0.3c0.1,0.1,0.1,0.2,0.1,0.3h0.2c0.2,0,0.4,0,0.6-0.1c0.2-0.1,0.4-0.2,0.6-0.4
	c0.2-0.2,0.4-0.5,0.5-0.8C169.9,85.5,170,85,170.1,84.5"/>
<path class="st0" d="M177.7,80.7c0,0.1,0,0.2,0,0.3c0,0.1-0.1,0.2-0.1,0.3c-0.1,0.1-0.1,0.2-0.2,0.2c-0.1,0-0.2,0.1-0.3,0.1
	c-0.2,0-0.3,0-0.4-0.1c-0.1-0.1-0.1-0.2-0.1-0.3c0-0.1,0-0.2,0.1-0.4c0.1-0.1,0.1-0.3,0.2-0.4c0,0-0.1,0-0.2,0
	c-0.1,0-0.2,0.1-0.4,0.1c-0.1,0.1-0.3,0.2-0.5,0.3c-0.2,0.1-0.4,0.3-0.6,0.5l-0.9,3.9h-1l0.8-3.5c0-0.1,0-0.2,0.1-0.4
	c0-0.2,0.1-0.3,0.1-0.4c0-0.2,0-0.3-0.1-0.4c-0.1-0.1-0.2-0.1-0.4-0.1c-0.1,0-0.2,0-0.3,0c-0.1,0-0.2,0-0.3,0.1l0.1-0.3
	c0.3-0.1,0.5-0.2,0.7-0.3c0.2-0.1,0.4-0.1,0.6-0.1c0.3,0,0.5,0.1,0.6,0.2c0.1,0.2,0.2,0.4,0.2,0.7h0c0.4-0.4,0.7-0.6,1-0.8
	c0.2-0.1,0.5-0.2,0.7-0.2c0.1,0,0.2,0,0.3,0c0.1,0,0.2,0.1,0.3,0.1c0.1,0.1,0.1,0.2,0.2,0.3C177.7,80.3,177.7,80.5,177.7,80.7"/>
<path class="st0" d="M181.7,80.8c0-0.1,0-0.2-0.1-0.3c0-0.1-0.1-0.1-0.2-0.2c-0.1,0-0.1-0.1-0.2-0.1c-0.1,0-0.1,0-0.2,0
	c-0.4,0-0.8,0.2-1.2,0.7c-0.4,0.5-0.6,1.1-0.7,1.8c0.3,0,0.5-0.1,0.8-0.2c0.3-0.1,0.6-0.2,0.8-0.3c0.3-0.2,0.5-0.4,0.7-0.6
	C181.6,81.4,181.7,81.1,181.7,80.8 M182.7,80.9c0,0.4-0.1,0.7-0.4,1c-0.2,0.3-0.6,0.5-1,0.7c-0.3,0.1-0.7,0.2-1,0.3
	s-0.7,0.1-1.1,0.2c0,0.6,0.1,1,0.3,1.3c0.2,0.3,0.5,0.4,0.9,0.4c0.4,0,0.7-0.1,0.9-0.3c0.3-0.2,0.5-0.4,0.8-0.8l0.3,0.2
	c-0.3,0.4-0.6,0.8-1.1,1c-0.4,0.3-0.9,0.4-1.3,0.4c-0.6,0-1.1-0.2-1.5-0.5c-0.3-0.4-0.5-0.9-0.5-1.5c0-0.5,0.1-0.9,0.2-1.3
	c0.1-0.4,0.4-0.8,0.6-1.1c0.3-0.3,0.6-0.6,1-0.8c0.4-0.2,0.8-0.3,1.3-0.3c0.5,0,0.9,0.1,1.1,0.3C182.5,80.3,182.7,80.6,182.7,80.9"
	/>
<path class="st0" d="M187.4,81.1c0-0.1,0-0.2,0-0.3c0-0.1-0.1-0.2-0.2-0.3c-0.1-0.1-0.2-0.2-0.3-0.2c-0.1-0.1-0.3-0.1-0.5-0.1
	c-0.3,0-0.5,0.1-0.8,0.3c-0.2,0.2-0.5,0.4-0.7,0.7c-0.2,0.3-0.3,0.6-0.5,1c-0.1,0.4-0.2,0.8-0.2,1.2c0,0.2,0,0.4,0,0.6
	c0,0.2,0.1,0.3,0.1,0.5c0.1,0.1,0.2,0.2,0.3,0.3c0.1,0.1,0.3,0.1,0.5,0.1c0.2,0,0.4-0.1,0.6-0.2c0.2-0.1,0.5-0.3,0.7-0.6L187.4,81.1
	z M186.6,84.5L186.6,84.5c-0.1,0.1-0.2,0.1-0.3,0.2c-0.1,0.1-0.2,0.2-0.4,0.3c-0.1,0.1-0.3,0.2-0.5,0.2c-0.2,0.1-0.3,0.1-0.5,0.1
	c-0.5,0-0.9-0.2-1.2-0.6c-0.3-0.4-0.4-0.9-0.4-1.5c0-0.4,0.1-0.9,0.2-1.3c0.2-0.4,0.4-0.8,0.7-1.1c0.3-0.3,0.6-0.6,1-0.8
	c0.4-0.2,0.8-0.3,1.2-0.3c0.3,0,0.5,0,0.7,0.1c0.2,0.1,0.4,0.1,0.5,0.2l1-0.3l0.1,0.1l-0.8,3.5c0,0.1-0.1,0.2-0.1,0.4
	c0,0.2,0,0.3,0,0.4c0,0.2,0,0.3,0.1,0.4c0.1,0.1,0.2,0.1,0.4,0.1c0.1,0,0.2,0,0.3,0c0.1,0,0.2,0,0.3-0.1l-0.1,0.3
	c-0.3,0.1-0.6,0.2-0.7,0.3c-0.2,0.1-0.3,0.1-0.6,0.1c-0.3,0-0.5-0.1-0.6-0.2C186.7,84.9,186.6,84.7,186.6,84.5"/>
<path class="st0" d="M190.8,85.3c-0.3,0-0.6-0.1-0.7-0.2c-0.2-0.1-0.2-0.3-0.2-0.6c0-0.1,0-0.2,0-0.2c0-0.1,0-0.2,0-0.3l0.8-3.6h-1
	l0.1-0.5h1l0.4-1.6h1l-0.4,1.6h1.5l-0.1,0.5h-1.5l-0.7,3c0,0.1-0.1,0.3-0.1,0.4c0,0.1,0,0.2,0,0.3c0,0.2,0,0.3,0.1,0.4
	c0.1,0.1,0.3,0.1,0.5,0.1c0.1,0,0.2,0,0.4,0c0.2,0,0.3-0.1,0.4-0.1l-0.1,0.4c-0.3,0.1-0.5,0.2-0.7,0.2
	C191.4,85.3,191.1,85.3,190.8,85.3"/>
<path class="st0" d="M201.6,84.6l-0.1,0.3c-0.3,0.1-0.6,0.2-0.8,0.3c-0.2,0.1-0.4,0.1-0.5,0.1c-0.3,0-0.5-0.1-0.6-0.2
	c-0.1-0.1-0.2-0.3-0.2-0.6c0-0.1,0-0.2,0-0.3c0-0.1,0-0.2,0.1-0.3l0.5-2c0-0.2,0.1-0.3,0.1-0.4c0-0.1,0-0.2,0-0.3
	c0-0.2-0.1-0.4-0.2-0.6c-0.1-0.1-0.3-0.2-0.5-0.2c-0.2,0-0.5,0.1-0.7,0.2c-0.3,0.1-0.5,0.4-0.8,0.6l-0.9,3.9h-1l1.6-6.9
	c0-0.1,0-0.2,0-0.2c0-0.1,0-0.1,0-0.2c0-0.1,0-0.2-0.1-0.3c0-0.1-0.1-0.1-0.2-0.2c-0.1,0-0.2-0.1-0.3-0.1c-0.1,0-0.2,0-0.4,0
	l0.1-0.3l2-0.1l0.1,0.1l-0.9,3.7h0c0.4-0.3,0.7-0.5,1-0.7c0.3-0.2,0.6-0.2,1-0.2c0.3,0,0.6,0.1,0.8,0.3c0.2,0.2,0.3,0.5,0.3,0.8
	c0,0.1,0,0.2,0,0.3c0,0.2,0,0.3-0.1,0.5l-0.5,1.7c0,0.1-0.1,0.2-0.1,0.4c0,0.1,0,0.3,0,0.3c0,0.2,0,0.3,0.1,0.4
	c0.1,0.1,0.2,0.1,0.4,0.1c0.1,0,0.2,0,0.3,0C201.4,84.6,201.5,84.6,201.6,84.6"/>
<path class="st0" d="M206.3,81.7c0-0.5-0.1-0.9-0.3-1.1c-0.2-0.3-0.4-0.4-0.8-0.4c-0.3,0-0.6,0.1-0.8,0.3c-0.3,0.2-0.5,0.5-0.7,0.9
	c-0.1,0.3-0.3,0.7-0.3,1c-0.1,0.4-0.1,0.7-0.1,1.1c0,0.5,0.1,0.9,0.3,1.2c0.2,0.3,0.4,0.4,0.8,0.4c0.3,0,0.6-0.1,0.8-0.3
	c0.2-0.2,0.4-0.5,0.6-0.8c0.2-0.3,0.3-0.6,0.4-1C206.3,82.5,206.3,82.1,206.3,81.7 M207.4,81.9c0,0.4-0.1,0.8-0.2,1.3
	c-0.1,0.4-0.4,0.8-0.6,1.1c-0.3,0.3-0.6,0.6-1,0.8c-0.4,0.2-0.8,0.3-1.4,0.3c-0.6,0-1.1-0.2-1.5-0.6c-0.4-0.4-0.6-0.9-0.6-1.6
	c0-0.5,0.1-0.9,0.2-1.3c0.2-0.4,0.4-0.8,0.6-1.1c0.3-0.3,0.6-0.6,1-0.8c0.4-0.2,0.8-0.3,1.3-0.3c0.6,0,1.1,0.2,1.5,0.6
	C207.2,80.8,207.4,81.3,207.4,81.9"/>
<path class="st0" d="M209.4,85.3c-0.3,0-0.6-0.1-0.7-0.2c-0.2-0.1-0.2-0.3-0.2-0.6c0-0.1,0-0.2,0-0.2c0-0.1,0-0.2,0-0.3l0.8-3.6h-1
	l0.1-0.5h1l0.4-1.6h1l-0.4,1.6h1.5l-0.1,0.5h-1.5l-0.7,3c0,0.1-0.1,0.3-0.1,0.4c0,0.1,0,0.2,0,0.3c0,0.2,0,0.3,0.1,0.4
	c0.1,0.1,0.3,0.1,0.5,0.1c0.1,0,0.2,0,0.4,0c0.2,0,0.3-0.1,0.4-0.1l-0.1,0.4c-0.3,0.1-0.5,0.2-0.7,0.2
	C210,85.3,209.7,85.3,209.4,85.3"/>
<path class="st0" d="M215.6,80.8c0-0.1,0-0.2-0.1-0.3c0-0.1-0.1-0.1-0.1-0.2c-0.1,0-0.1-0.1-0.2-0.1c-0.1,0-0.1,0-0.2,0
	c-0.4,0-0.8,0.2-1.2,0.7c-0.4,0.5-0.6,1.1-0.7,1.8c0.3,0,0.5-0.1,0.8-0.2c0.3-0.1,0.6-0.2,0.8-0.3c0.3-0.2,0.5-0.4,0.7-0.6
	C215.5,81.4,215.6,81.1,215.6,80.8 M216.6,80.9c0,0.4-0.1,0.7-0.4,1c-0.2,0.3-0.6,0.5-1,0.7c-0.3,0.1-0.7,0.2-1,0.3
	s-0.7,0.1-1.1,0.2c0,0.6,0.1,1,0.3,1.3c0.2,0.3,0.5,0.4,0.9,0.4c0.4,0,0.7-0.1,0.9-0.3c0.3-0.2,0.5-0.4,0.8-0.8l0.3,0.2
	c-0.3,0.4-0.6,0.8-1.1,1c-0.4,0.3-0.9,0.4-1.3,0.4c-0.6,0-1.1-0.2-1.5-0.5c-0.3-0.4-0.5-0.9-0.5-1.5c0-0.5,0.1-0.9,0.2-1.3
	c0.1-0.4,0.4-0.8,0.6-1.1c0.3-0.3,0.6-0.6,1-0.8c0.4-0.2,0.8-0.3,1.3-0.3c0.5,0,0.9,0.1,1.1,0.3C216.5,80.3,216.6,80.6,216.6,80.9"
	/>
<path class="st0" d="M220,77l-1.5,6.5c0,0.1-0.1,0.3-0.1,0.4c0,0.1,0,0.2,0,0.3c0,0.2,0,0.3,0.1,0.4c0.1,0.1,0.2,0.1,0.4,0.1
	c0.1,0,0.2,0,0.3,0c0.1,0,0.3,0,0.3-0.1l-0.1,0.3c-0.3,0.1-0.6,0.2-0.7,0.3c-0.2,0.1-0.4,0.1-0.6,0.1c-0.3,0-0.5-0.1-0.7-0.2
	c-0.1-0.2-0.2-0.3-0.2-0.6c0-0.1,0-0.2,0-0.3c0-0.1,0-0.2,0.1-0.3l1.3-5.7c0-0.1,0-0.2,0-0.2c0,0,0-0.1,0-0.2c0-0.1,0-0.2-0.1-0.3
	c0-0.1-0.1-0.1-0.2-0.2c-0.1,0-0.2-0.1-0.3-0.1c-0.1,0-0.2,0-0.4,0L218,77L220,77L220,77z"/>
<path class="st1" d="M158.4,63.8c0-1.7,1.4-3.1,3.1-3.1c1.7,0,3.1,1.4,3.1,3.1s-1.4,3.1-3.1,3.1C159.7,66.8,158.4,65.5,158.4,63.8
	 M161.4,61.4c-1.8,0-2.4,1.7-2.5,2.2c0,0,0.9-1.1,1.6-1.2c0,0-1.6,1-0.6,2.8c0,0,0.2-1.9,1.1-2.2c0,0-0.8,0.8,0.4,2.1
	c1.2-1.2,0.4-2.1,0.4-2.1c0.9,0.2,1.1,2.2,1.1,2.2c1.1-1.9-0.6-2.8-0.6-2.8c0.7,0,1.6,1.2,1.6,1.2C163.9,63,163.3,61.4,161.4,61.4"
	/>
<path class="st1" d="M161.4,4.5c7.2,5.9,5.2,15.2,3.9,19.2c1-2,3.1-4.8,7.3-4.8c7.6,0,7.9,7.7,7.9,7.7c-1.8-3.4-5.4-2.2-5.4-2.2
	c3.9,2.7,2.3,5.6,2.3,5.6s-1.6-3.8-6.7-1.4c-2.5,1.2-3.8,4.2-4.9,6.9c-0.3,0.7,0.6,1.3,1.2,0.9c1.9-1.1,3.6-2.4,6-3.1
	c9.3-2.4,15.5,3.8,15.5,11.7c0,8.2-7.7,11.4-12.2,9.4c0,0,5.4-0.1,5.3-4.2c0,0-3.3,3.2-7.9,0.2c0,0,5.3-0.3,5.3-5.2
	c0-2.1-1.5-3.6-3.8-3.6c-3.5,0-3.8,2.7-8.6,3.9c-0.6,0.2-0.8,0.7-0.2,1c6.5,2.6,9.8,10.3,5.5,15.7c-2.7,3.5-7.6,1.1-6.4-2
	c1.2-3.1-2.5-4.1-4-4.1c-1.5,0-5.2,1-4,4.1c1.2,3.1-3.7,5.4-6.4,2c-4.2-5.4-1-13.1,5.5-15.7c0.6-0.2,0.4-0.8-0.2-1
	c-4.8-1.2-5.1-3.9-8.6-3.9c-2.2,0-3.8,1.5-3.8,3.6c0,5,5.3,5.2,5.3,5.2c-4.6,3-7.9-0.2-7.9-0.2c-0.1,4.1,5.3,4.2,5.3,4.2
	c-4.5,2-12.2-1.1-12.2-9.4c0-7.9,6.1-14.1,15.5-11.7c2.4,0.6,4.1,2,6,3.1c0.6,0.4,1.5-0.3,1.2-0.9c-1.1-2.7-2.4-5.7-4.9-6.9
	c-5.1-2.4-6.7,1.4-6.7,1.4s-1.6-2.9,2.3-5.6c0,0-3.7-1.2-5.5,2.2c0,0,0.3-7.7,7.9-7.7c4.2,0,6.3,2.8,7.3,4.8
	C156.2,19.7,154.2,10.4,161.4,4.5 M161.4,53.4c0,0,1-3.1,1-4.2c1.3,2.5,0.9,4.6,0.9,4.6s1.8-1.7,0.8-4.7c2.3,2.9,1.3,5.6,1.3,5.6
	s2.3-1.9,0.3-5c0.4,0.4,0.7,0.8,1,1.2c1.6,2.9,0.1,5.5,0.1,5.5s2.3-1.2,1.2-4.9c0.5,0.7,0.7,1.5,0.9,2.3c0.6,4.3-1.4,5.6-1.4,5.6
	s3.3-1.6,2.8-5.5c0.2,0.7,0.4,1.3,0.4,1.9c0,4.3-1.9,5.4-1.9,5.4s3.2-1.2,3.2-5.1c0-4-2.8-9.4-10.4-9.4c-7.6,0-10.4,5.4-10.4,9.4
	c0,4.5,3.3,5.1,3.3,5.1s-2-1.1-2-5.4c0-0.6,0.1-1.3,0.4-1.9c-0.5,3.8,2.8,5.5,2.8,5.5s-2-1.4-1.4-5.6c0.1-0.8,0.4-1.5,0.9-2.3
	c-1.1,3.7,1.2,4.9,1.2,4.9s-1.5-2.6,0.1-5.5c0.2-0.4,0.6-0.8,1-1.2c-2,3.1,0.3,5,0.3,5s-1-2.6,1.3-5.6c-1,3,0.8,4.7,0.8,4.7
	s-0.5-2.1,0.8-4.6C160.5,50.3,161.4,53.4,161.4,53.4 M145.9,34.2c-8.4-0.2-13.9,11.6-6.8,17.4c0,0-5-11.1,4.2-14.6c0,0-7.2,4.4-1,11
	c0,0-2.8-9.5,5.4-9.9c4.1-0.2,6.7,6.8,12.6,5c0,0-3.2,0.7-6.5-4.7C152.4,36.2,149.7,34.3,145.9,34.2 M161.4,9.3
	c-1,2.4-1.2,5.2-0.6,7.8c-1.4-2.1-1.1-5.2-0.6-7.7c-1.2,3.2-1.2,7.2,0.1,10.4c-1.3-0.8-1.4-3.4-1.5-5c0,2.4,0,7.6,2.6,8.2
	c2.7-0.5,2.7-5.7,2.7-8.2c-0.2,1.6-0.2,4.2-1.5,5c1.4-3.2,1.3-7.2,0.1-10.4c0.4,2.4,0.8,5.6-0.6,7.7
	C162.6,14.5,162.4,11.7,161.4,9.3 M177.5,22.3c0,0-1.5-2.2-4.4-2.2c-3.3,0-6,1.3-7.7,6.5c-1.7,5.3-1.8,8.3-3.3,8.9
	c0,0,2.2,0.6,3.8-5.6c1.2-4.7,3.2-5.3,3.2-5.3s1.8-1.3,4.8,1.1c0,0-1.2-2.4-2.7-3.2C171.2,22.5,172.8,20.4,177.5,22.3 M145.3,22.3
	c4.7-1.9,6.3,0.2,6.3,0.2c-1.5,0.8-2.7,3.2-2.7,3.2c3-2.5,4.8-1.1,4.8-1.1s2.1,0.6,3.2,5.3c1.6,6.3,3.8,5.6,3.8,5.6
	c-1.6-0.6-1.7-3.7-3.4-8.9c-1.6-5.2-4.4-6.5-7.7-6.5C146.8,20.1,145.3,22.3,145.3,22.3 M176.9,34.2c-3.8,0.1-6.5,1.9-7.9,4.2
	c-3.3,5.4-6.5,4.7-6.5,4.7c6,1.8,8.5-5.2,12.6-5c8.2,0.5,5.4,9.9,5.4,9.9c6.2-6.6-1-11-1-11c9.2,3.6,4.2,14.6,4.2,14.6
	C190.9,45.9,185.3,34.1,176.9,34.2"/>
<path class="st2" d="M22.2,39.2c0,0,0,0.2-0.1,0.9C22,41.3,22,42.5,22,43.6c0,0.1,0,0.4,0.1,0.8c0,0.4,0.1,0.8,0.1,1.4v0.3
	c0,0.3-0.1,0.4-0.3,0.4c-0.2,0-0.3-0.2-0.4-0.5c-0.3-0.7-0.6-1.2-0.9-1.4c-1.5,1.3-3.3,2-5.5,2c-3.1,0-5.7-1.1-7.7-3.2
	c-2-2.2-3-4.9-3-8.2c0-3.3,0.9-6,2.8-8.1c1.9-2.1,4.3-3.2,7.2-3.2c1.1,0,1.9,0.1,2.6,0.3c0.7,0.2,1.5,0.5,2.4,1.1
	c0.5,0.3,0.8,0.4,1,0.4c0.2,0,0.4-0.2,0.5-0.5c0.3-0.6,0.5-0.9,0.7-0.9c0.2,0,0.3,0.1,0.3,0.3c0,0.1,0,0.2-0.1,0.4
	c-0.2,1-0.3,2.9-0.3,5.7c0,0.4,0,0.6-0.1,0.7c-0.1,0.1-0.1,0.1-0.3,0.1c-0.2,0-0.3-0.2-0.4-0.6c-0.3-1.7-0.7-2.9-1.2-3.8
	c-1-1.7-2.7-2.5-4.9-2.5c-1.7,0-3.1,0.6-4.1,1.7c-1.8,2-2.7,5-2.7,9c0,3.5,0.7,6.3,2.2,8.2c1.3,1.7,3,2.5,5.1,2.5
	c1.1,0,2.1-0.3,3-0.8c0.9-0.5,1.6-1.3,2.1-2.2c0.5-1.1,0.9-2.2,1.2-3.5c0.1-0.5,0.2-0.8,0.4-0.8C22.1,38.7,22.2,38.9,22.2,39.2"/>
<path class="st2" d="M41.2,43.8c0,0.5,0,1.5-0.1,2.7h-0.3c-0.1,0-0.4,0-0.9-0.1c-0.5,0-1-0.1-1.6-0.1L25,46.3
	c-0.4,0-0.5-0.1-0.5-0.3c0-0.1,0.3-0.2,0.9-0.3c0.8,0,1.3-0.1,1.4-0.3c0.2-0.1,0.3-0.5,0.3-1.2V26.4c0-0.8-0.1-1.2-0.3-1.4
	c-0.1-0.1-0.7-0.2-1.7-0.2c-0.4,0-0.6-0.1-0.6-0.3c0-0.2,0.1-0.3,0.4-0.3h0.3c0.7,0.1,2.1,0.1,4.1,0.1c0.2,0,0.6,0,1.1,0
	c0.5,0,1-0.1,1.4-0.1h0.3c0.4,0,0.6,0.1,0.6,0.3c0,0.1-0.1,0.2-0.2,0.3c-0.1,0-0.5,0-1.1,0.1c-0.6,0-1,0.1-1.1,0.3
	c-0.1,0.2-0.2,0.7-0.2,1.6v18.7c0.6,0,1.4,0,2.4,0c2.5,0,4.2-0.1,5.2-0.4c1-0.3,1.7-0.7,2.1-1.4c0.4-0.7,0.6-1.6,0.6-2.8
	c0-0.3,0.1-0.4,0.4-0.4c0.3,0,0.4,0.2,0.4,0.5l0,0.8v0.3c0,0.1,0,0.3,0,0.4V43.8z"/>
<path class="st2" d="M54.9,38.5c-0.3-0.9-0.9-2.5-1.7-4.7l-1.5-4.3c-0.9,2.3-2,5.3-3.2,9.1H54.9z M63.5,46c0,0.2-0.2,0.3-0.5,0.3
	c-0.2,0-0.4,0-0.6,0l-4-0.1l-4,0.1c-0.1,0-0.3,0-0.5,0c-0.4,0-0.6-0.1-0.6-0.3c0-0.2,0.3-0.3,0.9-0.3c1.9,0,2.8-0.2,2.8-0.6
	c0,0,0-0.1-0.1-0.3L56.6,44l-0.2-0.4c-0.2-0.7-0.7-2.1-1.4-4.3h-6.8c-1.3,3.4-1.9,5.3-1.9,5.8c0,0.3,0.1,0.5,0.4,0.5
	c0.1,0,0.6,0.1,1.6,0.1c0.6,0,0.9,0.1,0.9,0.3c0,0.2-0.3,0.3-0.8,0.3c-1,0-2.1,0-3.4-0.1c-0.3,0-0.6,0-1,0c-0.3,0-0.7,0-1,0.1
	c-0.2,0-0.3,0-0.4,0c-0.3,0-0.4-0.1-0.4-0.3c0-0.2,0.3-0.3,1-0.3c0.7,0,1.2-0.1,1.5-0.3c0.3-0.2,0.5-0.5,0.7-1
	c2.7-7.8,4.9-14,6.6-18.7c0-0.3,0.1-0.5,0.3-0.9l0.2-0.6c0.1-0.2,0.1-0.3,0.3-0.3c0.1,0,0.1,0.1,0.2,0.2c0.3,0.8,0.9,2.5,1.9,5.2
	c0.8,2,2.6,7.2,5.7,15.4c0.2,0.5,0.4,0.8,0.6,0.9c0.3,0.1,0.8,0.2,1.6,0.2C63.2,45.7,63.5,45.8,63.5,46"/>
<path class="st2" d="M76.9,40.1c0,1.8-0.7,3.4-2.1,4.7c-1.4,1.3-3,1.9-5,1.9c-1.1,0-2.5-0.3-4.1-1c-0.4-0.2-0.7-0.3-1-0.3
	c-0.3,0-0.4,0.3-0.5,0.9c0,0.3-0.2,0.5-0.4,0.5c-0.2,0-0.3-0.1-0.3-0.4c0-0.2,0-0.3,0-0.4c0.2-1.3,0.3-2.5,0.3-3.6
	c0-0.2,0-0.8-0.1-1.8c0-0.1,0-0.3,0-0.5c0-0.3,0.1-0.5,0.4-0.5c0.2,0,0.4,0.3,0.4,0.8c0.5,3.8,2.3,5.6,5.3,5.6c1.3,0,2.3-0.4,3-1.1
	c0.7-0.7,1.1-1.8,1.1-3.1c0-1.2-0.3-2.2-1-3c-0.7-0.8-1.8-1.7-3.5-2.5c-2-1-3.4-2-4.2-2.9c-0.8-0.9-1.2-2.1-1.2-3.4
	c0-1.8,0.6-3.2,1.7-4.3c1.1-1.1,2.6-1.7,4.3-1.7c0.7,0,1.7,0.2,3,0.7c0.4,0.2,0.8,0.3,1,0.3c0.2,0,0.4,0,0.4-0.1
	c0.1-0.1,0.2-0.3,0.2-0.7c0-0.2,0.2-0.3,0.3-0.3c0.2,0,0.3,0.1,0.3,0.4c0,0.2,0,0.3,0,0.4c-0.1,0.5-0.1,1.1-0.1,1.8
	c0,1,0.1,1.8,0.2,2.4l0,0.5c0,0.2-0.1,0.3-0.3,0.3c-0.2,0-0.4-0.2-0.5-0.7c-0.2-1.2-0.8-2.3-1.6-3.1c-0.9-0.8-1.8-1.3-2.9-1.3
	c-1.1,0-1.9,0.3-2.5,1c-0.6,0.7-0.9,1.6-0.9,2.8c0,1.4,0.5,2.4,1.4,3.3c0.5,0.5,1.6,1.1,3.3,2c2,1,3.4,2,4.3,3
	C76.4,37.6,76.9,38.8,76.9,40.1"/>
<path class="st2" d="M92.6,40.1c0,1.8-0.7,3.4-2.1,4.7c-1.4,1.3-3,1.9-5,1.9c-1.1,0-2.5-0.3-4.1-1c-0.4-0.2-0.7-0.3-1-0.3
	c-0.3,0-0.4,0.3-0.5,0.9c0,0.3-0.2,0.5-0.4,0.5c-0.2,0-0.3-0.1-0.3-0.4c0-0.2,0-0.3,0-0.4c0.2-1.3,0.3-2.5,0.3-3.6
	c0-0.2,0-0.8-0.1-1.8c0-0.1,0-0.3,0-0.5c0-0.3,0.1-0.5,0.4-0.5c0.2,0,0.4,0.3,0.4,0.8c0.5,3.8,2.3,5.6,5.3,5.6c1.3,0,2.3-0.4,3-1.1
	c0.7-0.7,1.1-1.8,1.1-3.1c0-1.2-0.3-2.2-1-3c-0.7-0.8-1.8-1.7-3.5-2.5c-2-1-3.4-2-4.2-2.9c-0.8-0.9-1.2-2.1-1.2-3.4
	c0-1.8,0.6-3.2,1.7-4.3c1.1-1.1,2.6-1.7,4.3-1.7c0.7,0,1.7,0.2,3,0.7c0.4,0.2,0.8,0.3,1,0.3c0.2,0,0.4,0,0.4-0.1
	c0.1-0.1,0.2-0.3,0.2-0.7c0-0.2,0.2-0.3,0.3-0.3c0.2,0,0.3,0.1,0.3,0.4c0,0.2,0,0.3,0,0.4C91,25.1,91,25.7,91,26.4
	c0,1,0.1,1.8,0.2,2.4l0,0.5c0,0.2-0.1,0.3-0.3,0.3c-0.2,0-0.4-0.2-0.5-0.7c-0.2-1.2-0.8-2.3-1.6-3.1c-0.9-0.8-1.8-1.3-2.9-1.3
	c-1.1,0-1.9,0.3-2.5,1c-0.6,0.7-0.9,1.6-0.9,2.8c0,1.4,0.5,2.4,1.4,3.3c0.5,0.5,1.6,1.1,3.3,2c2,1,3.4,2,4.3,3
	C92.2,37.6,92.6,38.8,92.6,40.1"/>
<path class="st2" d="M102.7,46c0,0.2-0.1,0.3-0.4,0.3H102c-0.1-0.1-1.6-0.1-4.3-0.1c-0.5,0-1.1,0-1.6,0.1c-0.3,0-0.7,0-1.3,0
	c-0.3,0-0.4-0.1-0.4-0.3c0-0.2,0.3-0.3,0.8-0.3c0.8,0,1.3-0.1,1.5-0.3c0.1-0.2,0.2-0.8,0.2-1.8V26.9c0-1-0.1-1.6-0.2-1.7
	c-0.1-0.2-0.7-0.3-1.7-0.4c-0.4,0-0.6-0.1-0.6-0.3c0-0.2,0.1-0.3,0.4-0.3l4.3,0.1c0.3,0,0.9,0,1.8,0l1.2,0c0.3,0,0.5,0.1,0.5,0.3
	c0,0.2-0.5,0.3-1.4,0.3c-0.5,0-0.9,0.1-1,0.3c-0.1,0.2-0.2,0.6-0.2,1.3v16.9c0,1.2,0.1,1.9,0.2,2c0.2,0.2,0.9,0.4,2.1,0.4
	C102.6,45.8,102.7,45.8,102.7,46"/>
<path class="st2" d="M122.7,39.2c0,0,0,0.2-0.1,0.9c-0.1,1.2-0.1,2.4-0.1,3.5c0,0.1,0,0.4,0.1,0.8c0,0.4,0.1,0.8,0.1,1.4v0.3
	c0,0.3-0.1,0.4-0.3,0.4s-0.3-0.2-0.4-0.5c-0.3-0.7-0.6-1.2-0.9-1.4c-1.5,1.3-3.3,2-5.5,2c-3.1,0-5.7-1.1-7.7-3.2c-2-2.2-3-4.9-3-8.2
	c0-3.3,0.9-6,2.8-8.1c1.9-2.1,4.3-3.2,7.2-3.2c1.1,0,1.9,0.1,2.6,0.3c0.7,0.2,1.5,0.5,2.4,1.1c0.5,0.3,0.8,0.4,1,0.4
	c0.2,0,0.4-0.2,0.5-0.5c0.3-0.6,0.5-0.9,0.7-0.9c0.2,0,0.3,0.1,0.3,0.3c0,0.1,0,0.2-0.1,0.4c-0.2,1-0.3,2.9-0.3,5.7
	c0,0.4,0,0.6-0.1,0.7s-0.1,0.1-0.3,0.1c-0.2,0-0.3-0.2-0.4-0.6c-0.3-1.7-0.7-2.9-1.2-3.8c-1-1.7-2.7-2.5-4.9-2.5
	c-1.7,0-3.1,0.6-4.1,1.7c-1.8,2-2.7,5-2.7,9c0,3.5,0.7,6.3,2.2,8.2c1.3,1.7,3,2.5,5.1,2.5c1.1,0,2.1-0.3,3-0.8
	c0.9-0.5,1.6-1.3,2.1-2.2c0.5-1.1,0.9-2.2,1.2-3.5c0.1-0.5,0.2-0.8,0.4-0.8C122.6,38.7,122.7,38.9,122.7,39.2"/>
<path class="st2" d="M216,44.3c0,0.6,0,1.5-0.1,2.8h-0.4c-0.1,0-0.4,0-0.9-0.1c-0.5,0-1.1-0.1-1.7-0.1l-13.5-0.1
	c-0.4,0-0.6-0.1-0.6-0.3c0-0.2,0.3-0.2,0.9-0.3c0.8,0,1.3-0.1,1.5-0.3c0.2-0.2,0.3-0.6,0.3-1.2V26.6c0-0.8-0.1-1.3-0.3-1.4
	c-0.2-0.1-0.7-0.2-1.7-0.2c-0.4,0-0.6-0.1-0.6-0.4c0-0.2,0.1-0.3,0.4-0.3h0.3c0.7,0.1,2.1,0.1,4.2,0.1c0.2,0,0.6,0,1.1,0
	c0.6,0,1-0.1,1.4-0.1h0.4c0.4,0,0.6,0.1,0.6,0.3c0,0.1-0.1,0.2-0.2,0.3c-0.1,0-0.5,0-1.1,0.1c-0.6,0-1,0.1-1.1,0.3
	c-0.1,0.2-0.2,0.7-0.2,1.7v19.1c0.6,0,1.4,0,2.4,0c2.5,0,4.3-0.1,5.4-0.4c1-0.3,1.7-0.7,2.1-1.5c0.4-0.7,0.6-1.7,0.6-2.9
	c0-0.3,0.2-0.4,0.4-0.4c0.3,0,0.4,0.2,0.4,0.5l0,0.8v0.3c0,0.2,0,0.3,0,0.5V44.3z"/>
<path class="st2" d="M234.5,35.9c0-4-0.8-7-2.4-9.2c-1-1.4-2.4-2.1-4.2-2.1c-1.7,0-3.1,0.5-4,1.6c-1.8,1.9-2.6,5.1-2.6,9.5
	c0,3.5,0.6,6.2,1.8,8.1c1.2,1.9,3,2.9,5.2,2.9c2.1,0,3.6-0.9,4.6-2.7C234,42,234.5,39.3,234.5,35.9 M238.2,35.8c0,3.2-1,5.9-2.9,8.2
	c-1.9,2.2-4.3,3.3-7.1,3.3c-3,0-5.5-1.1-7.5-3.4c-2-2.3-3-5.1-3-8.4c0-3.4,1-6.1,2.9-8.3c2-2.2,4.5-3.2,7.5-3.2
	c2.9,0,5.3,1.1,7.2,3.4C237.2,29.6,238.2,32.4,238.2,35.8"/>
<path class="st2" d="M257.8,35.5c0-3.6-0.7-6.2-2.1-7.9c-1.4-1.7-3.6-2.5-6.6-2.5c-1.4,0-2.3,0.2-2.6,0.5c-0.1,0.2-0.2,0.7-0.2,1.6
	v17.3c0,0.6,0,1,0,1.1c0,0.1,0.1,0.2,0.3,0.3c0.5,0.3,1.6,0.4,3.3,0.4c2.3,0,4.2-0.8,5.6-2.5C257,42,257.8,39.3,257.8,35.5
	 M261.4,35.7c0,3.8-1.3,6.8-4,8.9c-1.9,1.6-4.6,2.3-7.8,2.3c-0.1,0-0.5,0-1.2,0c-0.7,0-1.7,0-3,0h-1.6l-2.6,0c-0.2,0-0.3,0-0.5,0
	c-0.4,0-0.6-0.1-0.6-0.3c0-0.2,0.3-0.3,1-0.3c0.9,0,1.4-0.2,1.7-0.5c0.1-0.2,0.1-0.6,0.1-1.2V27.1c0-1.1-0.1-1.7-0.3-1.8
	c-0.2-0.2-0.7-0.3-1.7-0.3c-0.5,0-0.7-0.1-0.7-0.4c0-0.2,0.2-0.3,0.6-0.3c0,0,0.2,0,0.7,0c0.5,0,1,0,1.5,0h3.5
	c3.9,0,6.7,0.3,8.3,0.8c2,0.6,3.6,1.9,4.8,3.9C260.8,31,261.4,33.2,261.4,35.7"/>
<path class="st2" d="M285,40.1c0,0.2-0.1,0.3-0.3,0.3l-0.7,0c-1,0-1.6,0.1-1.7,0.5c-0.1,0.3-0.1,1.2-0.1,2.8v1c-1.1,1-2.2,1.6-3.2,2
	c-1,0.4-2.2,0.6-3.7,0.6c-3.4,0-6.1-1-8.1-3c-2-2.1-3-4.8-3-8.3c0-3.5,1-6.4,3-8.6c2-2.2,4.6-3.3,7.8-3.3c1.4,0,2.9,0.4,4.6,1.2
	c0.5,0.2,0.9,0.4,1.2,0.4c0.4,0,0.7-0.3,0.8-0.8c0.1-0.3,0.2-0.5,0.4-0.5c0.2,0,0.3,0.1,0.3,0.3c0,0.1,0,0.3-0.1,0.7
	c-0.1,1.2-0.2,2.1-0.2,2.7l0,2.1c0,0.8,0,1.1,0,1c0,0.5-0.2,0.8-0.4,0.8c-0.2,0-0.3-0.2-0.3-0.5c-0.1-2.1-0.7-3.7-1.8-4.9
	c-1.1-1.2-2.6-1.8-4.3-1.8c-2.2,0-4,1-5.4,3c-1.3,2-1.9,4.7-1.9,8.2c0,3.3,0.7,6,2,7.9c1.3,1.9,3.1,2.9,5.4,2.9
	c1.7,0,2.9-0.5,3.6-1.5c0.3-0.5,0.5-1.4,0.5-2.7c0-1.1-0.1-1.7-0.3-1.9c-0.2-0.2-0.9-0.3-2.1-0.3c-0.3,0-0.5,0-0.6,0
	c-0.1,0-0.1-0.1-0.1-0.2c0-0.2,0.2-0.4,0.7-0.4h0.6c0.3,0.1,1.5,0.1,3.4,0.1l2.7,0c0.2,0,0.3,0,0.5,0h0.4
	C284.8,39.7,285,39.8,285,40.1"/>
<path class="st2" d="M302.6,41.6c0,0.1,0,0.6-0.1,1.6c0,1-0.1,1.9-0.1,2.8v1.1c-2.1-0.1-6.3-0.2-12.6-0.2c-0.8,0-1.5,0-2.2,0h-1.5
	h-0.3c-0.4,0-0.6-0.1-0.6-0.3c0-0.1,0.1-0.2,0.2-0.2c0.1,0,0.5,0,1.2-0.1c0.6,0,0.9-0.2,1-0.4c0.1-0.2,0.2-0.7,0.2-1.5V26.2
	c0-0.6-0.1-1-0.3-1.1c-0.2-0.1-0.8-0.2-1.8-0.2c-0.3,0-0.5-0.1-0.5-0.3c0-0.2,0.2-0.3,0.7-0.3l5.5,0c0.2,0,1.4,0,3.7,0h4.5
	c0.6,0,1.2,0,1.8-0.1c0,0.9,0.1,2.2,0.3,3.9l0.1,1.4c0,0.1,0,0.2,0,0.4c0,0.2-0.1,0.3-0.3,0.3c-0.2,0-0.4-0.3-0.5-0.8
	c-0.4-1.9-1.1-3.2-2-3.7c-0.7-0.4-2.5-0.6-5.4-0.6H291v9.5h0.8c2.4,0,3.9-0.2,4.4-0.6c0.5-0.4,0.9-1.4,1.1-3.2
	c0-0.5,0.2-0.7,0.4-0.7c0.2,0,0.4,0.2,0.4,0.6s0,1-0.1,1.7c0,0.8-0.1,1.3-0.1,1.7c0,2.3,0,3.9,0.1,4.8c0,0.2,0,0.4,0,0.6
	c0,0.3-0.1,0.4-0.4,0.4c-0.2,0-0.3-0.1-0.3-0.3c0-0.2-0.1-0.8-0.3-1.8c-0.2-1.3-0.7-2.1-1.6-2.4c-0.4-0.1-1.4-0.2-3-0.2H291v10.9
	c4.8,0,7.5-0.1,8.4-0.3c1.4-0.3,2.2-1.7,2.4-4.2c0-0.5,0.2-0.8,0.4-0.8C302.5,41,302.6,41.2,302.6,41.6"/>
<path class="st2" d="M318.4,40.6c0,1.9-0.7,3.5-2.1,4.8c-1.4,1.3-3.1,1.9-5.1,1.9c-1.2,0-2.6-0.4-4.2-1.1c-0.4-0.2-0.8-0.3-1-0.3
	c-0.3,0-0.4,0.3-0.5,0.9c0,0.3-0.2,0.5-0.4,0.5c-0.2,0-0.3-0.1-0.3-0.4c0-0.2,0-0.3,0-0.4c0.2-1.3,0.3-2.5,0.3-3.7
	c0-0.2,0-0.8-0.1-1.8c0-0.1,0-0.3,0-0.5c0-0.3,0.1-0.5,0.4-0.5c0.2,0,0.4,0.3,0.5,0.8c0.6,3.8,2.4,5.8,5.5,5.8c1.3,0,2.3-0.4,3-1.1
	c0.7-0.8,1.1-1.8,1.1-3.2c0-1.2-0.4-2.2-1.1-3.1c-0.7-0.9-1.9-1.7-3.6-2.6c-2.1-1-3.5-2-4.3-3c-0.8-1-1.2-2.1-1.2-3.5
	c0-1.8,0.6-3.3,1.7-4.4c1.2-1.2,2.6-1.8,4.4-1.8c0.7,0,1.8,0.2,3,0.7c0.5,0.2,0.8,0.3,1,0.3c0.2,0,0.4,0,0.5-0.1
	c0.1-0.1,0.2-0.3,0.2-0.7c0-0.2,0.2-0.3,0.4-0.3c0.2,0,0.3,0.1,0.3,0.4c0,0.2,0,0.3,0,0.4c-0.1,0.5-0.1,1.1-0.1,1.9
	c0,1,0.1,1.9,0.2,2.5l0,0.5c0,0.2-0.1,0.4-0.3,0.4c-0.2,0-0.4-0.2-0.5-0.7c-0.2-1.3-0.8-2.3-1.7-3.2c-0.9-0.9-1.9-1.3-3-1.3
	c-1.1,0-1.9,0.3-2.6,1c-0.6,0.7-0.9,1.6-0.9,2.8c0,1.4,0.5,2.5,1.4,3.3c0.5,0.5,1.6,1.1,3.4,2c2,1,3.5,2.1,4.4,3.1
	C318,38,318.4,39.2,318.4,40.6"/>
<path class="st2" d="M322,26.7h0.6c0.3,0,0.5,0,0.6-0.1c0.1-0.1,0.2-0.2,0.2-0.4c0-0.1,0-0.2-0.1-0.3c-0.1-0.1-0.1-0.1-0.2-0.2
	c-0.1,0-0.3-0.1-0.5-0.1H322V26.7z M321.5,28.5v-3.3h1.1c0.4,0,0.7,0,0.8,0.1c0.2,0.1,0.3,0.2,0.4,0.3c0.1,0.2,0.2,0.3,0.2,0.5
	c0,0.2-0.1,0.4-0.3,0.6c-0.2,0.2-0.4,0.3-0.7,0.3c0.1,0,0.2,0.1,0.3,0.2c0.1,0.1,0.3,0.3,0.5,0.6l0.4,0.6h-0.6l-0.3-0.5
	c-0.2-0.4-0.4-0.7-0.6-0.8c-0.1-0.1-0.2-0.1-0.4-0.1H322v1.4H321.5z M322.8,24.3c-0.4,0-0.8,0.1-1.2,0.3c-0.4,0.2-0.7,0.5-0.9,0.9
	c-0.2,0.4-0.3,0.8-0.3,1.3c0,0.4,0.1,0.9,0.3,1.3c0.2,0.4,0.5,0.7,0.9,0.9c0.4,0.2,0.8,0.3,1.3,0.3c0.4,0,0.9-0.1,1.3-0.3
	c0.4-0.2,0.7-0.5,0.9-0.9c0.2-0.4,0.3-0.8,0.3-1.3c0-0.4-0.1-0.9-0.3-1.3c-0.2-0.4-0.5-0.7-0.9-0.9
	C323.7,24.4,323.3,24.3,322.8,24.3 M322.8,23.8c0.5,0,1,0.1,1.5,0.4c0.5,0.3,0.9,0.6,1.1,1.1c0.3,0.5,0.4,1,0.4,1.5
	c0,0.5-0.1,1-0.4,1.5c-0.3,0.5-0.6,0.9-1.1,1.1c-0.5,0.3-1,0.4-1.5,0.4c-0.5,0-1-0.1-1.5-0.4c-0.5-0.3-0.9-0.6-1.1-1.1
	c-0.3-0.5-0.4-1-0.4-1.5c0-0.5,0.1-1,0.4-1.5c0.3-0.5,0.7-0.9,1.1-1.1C321.8,23.9,322.3,23.8,322.8,23.8"/>
</svg>
